<svg width="144" height="28" viewBox="0 0 144 28" version="1.1" xmlns="http://www.w3.org/2000/svg"><title>delante-logo</title><defs><linearGradient x1="88.968%" y1="82.485%" x2="-14.739%" y2="24.692%" id="linearGradient-1"><stop stop-color="#10AEDA" offset="0%"/><stop stop-color="#AACA54" offset="100%"/></linearGradient></defs><g id="Page-1" stroke="none" stroke-width="1" fill="none" fill-rule="evenodd"><g id="delante-logo" fill-rule="nonzero"><path d="M22.492 3.948A14.815 14.815 0 0 0 14.9.381a31.499 31.499 0 0 0-5.083-.28H0v27.702h11.596c4.422 0 8.054-1.289 10.896-3.867 2.842-2.578 4.262-5.915 4.262-10.013 0-4.085-1.42-7.41-4.262-9.975zm-9.213 18.596H9.465l-4.172 2.861V5.359H9.04c2.736 0 5.54-.305 8.034 1.05a8.583 8.583 0 0 1-3.776 16.15l-.02-.015z" id="Shape" fill="url(#linearGradient-1)"/><path d="M40.53 5.388a10.68 10.68 0 0 0-7.987 3.338 11.129 11.129 0 0 0-3.223 8.039 10.58 10.58 0 0 0 3.28 7.83 10.8 10.8 0 0 0 7.858 3.228 10.934 10.934 0 0 0 6.237-1.97 9.67 9.67 0 0 0 3.91-4.768h-5.603c-1.093 1.195-2.67 1.793-4.73 1.793a5.798 5.798 0 0 1-3.47-1.097 5.536 5.536 0 0 1-2.099-2.908h16.398s.124-.906.138-.983c.076-.473.12-.95.129-1.43a10.81 10.81 0 0 0-3.185-7.777 10.266 10.266 0 0 0-7.653-3.295zm-5.903 8.964a5.379 5.379 0 0 1 2.279-2.908 6.494 6.494 0 0 1 3.624-1.097 6.199 6.199 0 0 1 3.585 1.097 5.579 5.579 0 0 1 2.184 2.908H34.627zm20.021 13.461h5.074V0l-5.074 3.447zm51.831-19.092l-.548-.615a8.535 8.535 0 0 0-2.861-1.998 8.378 8.378 0 0 0-3.338-.706 8.478 8.478 0 0 0-3.414.673 6.447 6.447 0 0 0-2.599 2.031V6.103h-4.83v21.71h5.245v-10.49a17.208 17.208 0 0 1 .215-3.157 5.57 5.57 0 0 1 .686-1.84 3.676 3.676 0 0 1 1.493-1.292 4.558 4.558 0 0 1 2.098-.544c.69-.003 1.37.16 1.983.477.627.327 1.15.823 1.512 1.43.39.623.638 1.325.725 2.055.106 1.048.152 2.1.138 3.152v10.209h5.245V16.56a28.3 28.3 0 0 0-.296-4.468 7.83 7.83 0 0 0-1.454-3.37zm11.682 1.211h3.052V5.431h-3.052V0h-5.073v5.431h-2.48v4.501h2.48v17.881h.004l5.07-3.443zm22.592-1.254a10.266 10.266 0 0 0-7.63-3.29 10.68 10.68 0 0 0-7.986 3.338 11.129 11.129 0 0 0-3.223 8.039 10.58 10.58 0 0 0 3.28 7.83 10.8 10.8 0 0 0 7.84 3.218 10.934 10.934 0 0 0 6.236-1.97 9.67 9.67 0 0 0 3.91-4.768h-5.608c-1.093 1.196-2.67 1.793-4.73 1.793a5.798 5.798 0 0 1-3.47-1.096 5.536 5.536 0 0 1-2.099-2.909h16.398c.025-.254.076-.621.153-1.101.071-.428.11-.86.114-1.293a10.81 10.81 0 0 0-3.185-7.79zm-13.556 5.674a5.379 5.379 0 0 1 2.279-2.908 6.494 6.494 0 0 1 3.614-1.116 6.199 6.199 0 0 1 3.596 1.116 5.579 5.579 0 0 1 2.179 2.927l-11.668-.019zM80.54 6.075V9.06c0-.134-.339-.477-.425-.563a7.532 7.532 0 0 0-.476-.534 8.54 8.54 0 0 0-1.016-.916 7.839 7.839 0 0 0-2.332-1.235 10.905 10.905 0 0 0-6.56.124 9.89 9.89 0 0 0-2.332 1.116 10.161 10.161 0 0 0-3.338 3.681c-2.341 4.335-1.76 10.128 1.612 13.78a10.075 10.075 0 0 0 11.706 2.356 8.144 8.144 0 0 0 3.16-2.551v3.51h4.655V6.074H80.54zm-1.865 15a5.917 5.917 0 0 1-4.463 1.784 6.199 6.199 0 0 1-4.424-1.745 5.722 5.722 0 0 1-1.831-4.32 6.39 6.39 0 0 1 1.754-4.626 6.07 6.07 0 0 1 4.578-1.821 5.841 5.841 0 0 1 4.386 1.764 6.16 6.16 0 0 1 1.698 4.454 6.237 6.237 0 0 1-1.698 4.51z" id="Shape" fill="#3D3D3B"/></g></g></svg>